<?xml version="1.0" standalone="no"?><!DOCTYPE svg PUBLIC "-//W3C//DTD SVG 1.1//EN" "http://www.w3.org/Graphics/SVG/1.1/DTD/svg11.dtd"><svg t="1690785811659" class="icon" viewBox="0 0 1024 1024" version="1.1" xmlns="http://www.w3.org/2000/svg" p-id="2853" xmlns:xlink="http://www.w3.org/1999/xlink" width="200" height="200"><path d="M831.488 831.488v-212.992h106.496l-71.168-177.152h35.328l-106.496-283.648-71.168 248.32h35.328l-85.504 171.008-56.32-171.008 35.328 35.328L512 15.36 405.504 370.176h35.328l-71.168 212.992-70.656-148.48 35.328 6.656-105.984-284.16-71.168 248.32h35.328l-106.496 212.992h106.496v177.152s-139.776 61.44-177.152 106.496c59.392-27.136 120.832-20.992 212.992-35.328-27.648 16.896-53.248 19.968-71.168 35.328C118.272 936.96 50.688 1008.64 50.688 1008.64H476.16s-145.92-67.072-141.824-106.496c2.56-23.04 48.64-54.272 71.168-71.168 22.016-1.024 48.128 0.512 71.168 0v71.168H547.84v-71.168c178.688 6.144 361.984 25.6 461.312 71.168-33.28-39.424-177.664-70.656-177.664-70.656z m-354.816-71.168c-70.656 1.536-152.576 24.064-212.992 35.328v-177.152h71.168l-35.328 35.328h177.152v106.496z m283.648 35.328c-60.416-13.824-140.288-32.256-212.992-35.328v-106.496h177.152l-35.328-35.328h71.168v177.152z m0 0" p-id="2854" fill="#c0d4b1"></path></svg>