<?xml version="1.0" standalone="no"?><!DOCTYPE svg PUBLIC "-//W3C//DTD SVG 1.1//EN" "http://www.w3.org/Graphics/SVG/1.1/DTD/svg11.dtd"><svg t="1692268335425" class="icon" viewBox="0 0 1024 1024" version="1.1" xmlns="http://www.w3.org/2000/svg" p-id="7561" xmlns:xlink="http://www.w3.org/1999/xlink" width="200" height="200"><path d="M726.186667 264.874667a34.304 34.304 0 0 0-48.128 4.437333 34.133333 34.133333 0 0 0 4.437333 48.128c73.728 61.098667 116.224 151.04 116.906667 246.784a321.536 321.536 0 0 1-93.184 229.034667c-60.586667 61.44-141.482667 95.402667-227.84 96.085333h-2.048c-177.152 0-321.877333-143.530667-322.901334-321.024a323.857067 323.857067 0 0 1 160.938667-281.429333c16.384-9.386667 21.845333-30.378667 12.288-46.592a34.030933 34.030933 0 0 0-46.592-12.288C159.061333 297.813333 84.309333 428.544 85.162667 568.32c1.365333 215.04 176.64 388.949333 391.338666 388.949333h2.389334c104.448-0.682667 202.581333-41.984 275.968-116.224s113.493333-172.885333 112.981333-277.333333a391.1168 391.1168 0 0 0-141.653333-298.837333z" p-id="7562"></path><path d="M476.501333 494.933333c18.773333 0 34.133333-15.36 34.133334-34.133333V204.8c0-18.773333-15.36-34.133333-34.133334-34.133333s-34.133333 15.36-34.133333 34.133333v256a34.133333 34.133333 0 0 0 34.133333 34.133333z" p-id="7563"></path></svg>