<svg xmlns="http://www.w3.org/2000/svg" xmlns:xlink="http://www.w3.org/1999/xlink" fill="none" version="1.1" width="181" height="181" viewBox="0 0 181 181"><defs><clipPath id="master_svg0_1_4669"><rect x="20.00000762939453" y="20" width="141" height="141" rx="0"/></clipPath></defs><g><g><rect x="0" y="0" width="181" height="181" rx="30" fill="#55DB4F" fill-opacity="1"/></g><g clip-path="url(#master_svg0_1_4669)"><g><path d="M130.3341,26.99999237060547L51.6667,26.99999237060547C40.82089,26.99999237060547,32.00000437227,35.61422237060547,32.00000437227,46.19909237060547L32.00000437227,134.80099237060546C32.00000437227,145.38499237060546,40.82013,153.99999237060547,51.6667,153.99999237060547L130.3333,153.99999237060547C141.175,153.99999237060547,150,145.38499237060546,150,134.80099237060546L150,46.19909237060547C150.001,35.61423237060547,141.176,26.99999237060547,130.3341,26.99999237060547ZM59.6814,57.67129237060547L93.5941,57.67129237060547C96.1004,57.67129237060547,98.1314,59.65109237060547,98.1314,62.10219237060547C98.1314,64.54419237060546,96.1004,66.52919237060547,93.5941,66.52919237060547L59.6814,66.52919237060547C57.1759,66.52919237060547,55.1441,64.54489237060547,55.1441,62.10219237060547C55.1441,59.65109237060547,57.1751,57.67129237060547,59.6814,57.67129237060547ZM123.8476,124.85139237060547L59.6814,124.85139237060547C57.1759,124.85139237060547,55.1441,122.86719237060547,55.1441,120.41979237060546C55.1441,117.97329237060546,57.1751,115.98819237060547,59.6814,115.98819237060547L123.8483,115.98819237060547C126.3546,115.98819237060547,128.39100000000002,117.97329237060546,128.39100000000002,120.41979237060546C128.3909,122.86719237060547,126.3546,124.85139237060547,123.8476,124.85139237060547ZM123.8476,95.69219237060547L59.6814,95.69219237060547C57.1759,95.69219237060547,55.1441,93.70869237060546,55.1441,91.26139237060546C55.1441,88.81409237060547,57.1751,86.82979237060547,59.6814,86.82979237060547L123.8483,86.82979237060547C126.3546,86.82979237060547,128.39100000000002,88.81409237060547,128.39100000000002,91.26139237060546C128.39100000000002,93.70869237060546,126.3546,95.69219237060547,123.8476,95.69219237060547Z" fill="#FFFFFF" fill-opacity="1"/></g></g></g></svg>